<svg width="483" height="305" viewBox="0 0 483 305" fill="none" xmlns="http://www.w3.org/2000/svg">
<rect width="482.706" height="304.225" fill="white"/>
<path d="M340.903 195.999C319.303 199.099 304.803 221.799 311.203 242.599C316.503 259.599 331.303 269.899 348.903 268.799C362.603 267.899 373.603 260.199 379.703 247.199C387.803 230.099 380.403 208.599 363.403 199.999C358.403 197.499 355.803 196.799 347.903 195.599C346.803 195.399 343.603 195.599 340.903 195.999Z" fill="#8809B2"/>
<path d="M482.107 7.19922C480.307 31.2992 462.907 53.9 439.307 63C428.807 67 421.406 68 399.706 68H381.407V127.699L371.206 133.699C360.706 139.899 346.407 149.8 336.407 157.8C329.807 162.999 315.41 176.997 315.407 178.199C315.407 178.599 315.007 179 314.407 179C313.707 178.998 313.407 159.798 313.407 123.5V67.8994L252.701 68.1025L135.257 27.7441V68.498L134.907 68.5L127.107 71.2998C106.307 78.5998 91.8065 89.7 80.9065 106.5C71.3067 121.3 67.4065 134.4 67.4065 152.5C67.4066 165.6 69.7067 176.499 74.9065 187.699C83.5065 206.299 99.6071 222.099 118.007 229.899C130.507 235.199 136.707 236.399 151.407 236.399C165.106 236.399 173.106 235.1 181.706 231.3L185.407 229.699V186H117.307L118.007 180.699C121.007 155.8 134.907 135.6 155.907 125.5C168.907 119.3 170.907 119.1 214.007 119L252.907 118.899L253.206 192.399L253.407 265.8L247.206 270.699C226.306 287.199 201.907 298.2 176.907 302.5C163.806 304.8 140.506 304.8 126.407 302.5C79.8065 295 38.5067 264.7 16.6067 222.1C9.40677 208.1 6.50685 200.2 2.8069 184.5C0.306919 173.6 0.00709993 170.7 0.00709549 153C-0.0929045 131.8 0.806509 125.099 6.40651 106.899C23.8065 50.1995 75.1066 7.79965 134.407 1.09961C138.507 0.599609 218.607 0.199609 312.307 0.0996094L482.706 0L482.107 7.19922Z" fill="#8809B2"/>
</svg>
