<svg width="549" height="366" viewBox="0 0 549 366" fill="none" xmlns="http://www.w3.org/2000/svg">
<rect width="549" height="366" fill="white"/>
<path d="M371.903 226.999C350.303 230.099 335.803 252.799 342.203 273.599C347.503 290.599 362.303 300.899 379.903 299.799C393.603 298.899 404.603 291.199 410.703 278.199C418.803 261.099 411.403 239.599 394.403 230.999C389.403 228.499 386.803 227.799 378.903 226.599C377.803 226.399 374.603 226.599 371.903 226.999Z" fill="#8809B2"/>
<path d="M513.107 38.1992C511.307 62.2992 493.907 84.9 470.307 94C459.807 98 452.406 99 430.706 99H412.407V158.699L402.206 164.699C391.706 170.899 377.407 180.8 367.407 188.8C360.807 193.999 346.41 207.997 346.407 209.199C346.407 209.599 346.007 210 345.407 210C344.707 209.998 344.407 190.798 344.407 154.5V98.8994L283.701 99.1025L166.257 58.7441V99.498L165.907 99.5L158.107 102.3C137.307 109.6 122.807 120.7 111.907 137.5C102.307 152.3 98.4065 165.4 98.4065 183.5C98.4066 196.6 100.707 207.499 105.907 218.699C114.507 237.299 130.607 253.099 149.007 260.899C161.507 266.199 167.707 267.399 182.407 267.399C196.106 267.399 204.106 266.1 212.706 262.3L216.407 260.699V217H148.307L149.007 211.699C152.007 186.8 165.907 166.6 186.907 156.5C199.907 150.3 201.907 150.1 245.007 150L283.907 149.899L284.206 223.399L284.407 296.8L278.206 301.699C257.306 318.199 232.907 329.2 207.907 333.5C194.806 335.8 171.506 335.8 157.407 333.5C110.807 326 69.5067 295.7 47.6067 253.1C40.4068 239.1 37.5069 231.2 33.8069 215.5C31.3069 204.6 31.0071 201.7 31.0071 184C30.9071 162.8 31.8065 156.099 37.4065 137.899C54.8065 81.1995 106.107 38.7996 165.407 32.0996C169.507 31.5996 249.607 31.1996 343.307 31.0996L513.706 31L513.107 38.1992Z" fill="#8809B2"/>
</svg>
